<svg xmlns="http://www.w3.org/2000/svg" width="25.931" height="22.372" viewBox="0 0 25.931 22.372">
  <g id="blockchain" transform="translate(-1 -7.67)">
    <g id="Group_321" data-name="Group 321" transform="translate(2 8.856)">
      <path id="Path_1488" data-name="Path 1488" d="M43.191,30.595l1.2.761,4.387-2.792V23.778l-4.387-2.8L40,23.778v1.2" transform="translate(-24.844 -16.143)" fill="none" stroke="#070082" stroke-linecap="square" stroke-miterlimit="10" stroke-width="2"/>
      <line id="Line_196" data-name="Line 196" y2="4.895" transform="translate(11.966 15.06)" fill="none" stroke="#070082" stroke-miterlimit="10" stroke-width="2"/>
      <path id="Path_1489" data-name="Path 1489" d="M21,40l4.387,2.792L29.775,40" transform="translate(-13.422 -27.578)" fill="none" stroke="#070082" stroke-miterlimit="10" stroke-width="2"/>
      <line id="Line_197" data-name="Line 197" y2="4.787" transform="translate(11.966 15.213)" fill="none" stroke="#070082" stroke-miterlimit="10" stroke-width="2"/>
      <path id="Path_1490" data-name="Path 1490" d="M21,15.88l4.387,2.792,4.387-2.792" transform="translate(-13.422 -13.078)" fill="none" stroke="#070082" stroke-miterlimit="10" stroke-width="2"/>
      <line id="Line_198" data-name="Line 198" y2="2.043" transform="translate(11.966 5.593)" fill="none" stroke="#070082" stroke-miterlimit="10" stroke-width="2"/>
      <path id="Path_1491" data-name="Path 1491" d="M10.775,28,6.387,30.792,2,28" transform="translate(-2 -20.364)" fill="none" stroke="#070082" stroke-miterlimit="10" stroke-width="2"/>
      <line id="Line_199" data-name="Line 199" y2="4.787" transform="translate(4.387 10.427)" fill="none" stroke="#070082" stroke-miterlimit="10" stroke-width="2"/>
      <path id="Path_1492" data-name="Path 1492" d="M40,28l4.387,2.792L48.775,28" transform="translate(-24.844 -20.364)" fill="none" stroke="#070082" stroke-miterlimit="10" stroke-width="2"/>
      <line id="Line_200" data-name="Line 200" y2="4.787" transform="translate(19.544 10.427)" fill="none" stroke="#070082" stroke-miterlimit="10" stroke-width="2"/>
      <path id="Path_1493" data-name="Path 1493" d="M29.775,13.3V11.658l-4.387-2.8L21,11.658V13.3" transform="translate(-13.422 -8.856)" fill="none" stroke="#070082" stroke-linecap="square" stroke-miterlimit="10" stroke-width="2"/>
      <path id="Path_1494" data-name="Path 1494" d="M10.774,25.374v-1.6l-4.387-2.8L2,23.778v4.786l4.387,2.792,1.2-.761" transform="translate(-2 -16.143)" fill="none" stroke="#070082" stroke-linecap="square" stroke-miterlimit="10" stroke-width="2"/>
      <path id="Path_1495" data-name="Path 1495" d="M29.775,35.778l-4.387-2.8L21,35.778v4.786l4.387,2.792,4.387-2.792Z" transform="translate(-13.422 -23.356)" fill="none" stroke="#070082" stroke-miterlimit="10" stroke-width="2"/>
    </g>
  </g>
</svg>
