<svg xmlns="http://www.w3.org/2000/svg" width="20" height="20" viewBox="0 0 20 20">
  <path id="Path_17568" data-name="Path 17568" d="M20.619,3H5.381A2.381,2.381,0,0,0,3,5.381V20.619A2.381,2.381,0,0,0,5.381,23H20.619A2.381,2.381,0,0,0,23,20.619V5.381A2.381,2.381,0,0,0,20.619,3ZM10.143,6.333a1.9,1.9,0,1,1-1.9,1.9A1.9,1.9,0,0,1,10.143,6.333ZM20.554,18.955a.476.476,0,0,1-.411.236H5.857a.476.476,0,0,1-.4-.74l2.857-4.286a.476.476,0,0,1,.66-.132.486.486,0,0,1,.072.06L11.5,16.545l3.961-5.721a.468.468,0,0,1,.413-.2.476.476,0,0,1,.393.242l4.286,7.619A.476.476,0,0,1,20.554,18.955Z" transform="translate(-3 -3)" fill="#fff"/>
</svg>
