<svg width="16" height="15" viewBox="0 0 16 15" fill="none" xmlns="http://www.w3.org/2000/svg">
<path d="M14.673 6.87486C15.7437 6.06497 15.1709 4.3583 13.8284 4.3583H11.3992C10.7853 4.3583 10.243 3.95833 10.0617 3.37181L9.33754 1.0295C8.9309 -0.285818 7.0691 -0.285819 6.66246 1.0295L5.93832 3.37181C5.75699 3.95833 5.21469 4.3583 4.60078 4.3583H2.12961C0.791419 4.3583 0.215919 6.05586 1.27822 6.86966L3.39469 8.49105C3.85885 8.84662 4.05314 9.45321 3.88196 10.0123L3.11296 12.5239C2.71416 13.8263 4.22167 14.8735 5.30301 14.0451L7.14861 12.6312C7.65097 12.2464 8.34903 12.2464 8.85139 12.6312L10.6807 14.0326C11.7636 14.8622 13.2725 13.811 12.8696 12.5077L12.09 9.98583C11.9159 9.42288 12.113 8.81121 12.5829 8.45575L14.673 6.87486Z" fill="#CCD6DD"/>
</svg>
