<svg width="94" height="100" viewBox="0 0 94 100" fill="none" xmlns="http://www.w3.org/2000/svg">
<path d="M93.0177 50C93.0177 77.6142 72.195 100 46.5089 100C20.8227 100 0 77.6142 0 50C0 22.3858 20.8227 0 46.5089 0C72.195 0 93.0177 22.3858 93.0177 50Z" fill="#FF8C42" fill-opacity="0.5"/>
<path d="M91.1574 50.3333C91.1574 76.6589 71.3064 98 46.8189 98C22.3315 98 2.48047 76.6589 2.48047 50.3333C2.48047 24.0078 22.3315 2.66667 46.8189 2.66667C71.3064 2.66667 91.1574 24.0078 91.1574 50.3333Z" fill="#FF8C42" fill-opacity="0.7"/>
<path d="M87.4367 50C87.4367 73.9323 69.3903 93.3333 47.129 93.3333C24.8677 93.3333 6.8213 73.9323 6.8213 50C6.8213 26.0677 24.8677 6.66667 47.129 6.66667C69.3903 6.66667 87.4367 26.0677 87.4367 50Z" fill="#FF8C42"/>
<path d="M58.36 53.4074H36.3114L34.1065 39.1852H60.5649L58.36 53.4074Z" fill="#CCD6DD"/>
<path d="M60.5472 59.3333H36.2937C35.0877 59.3333 34.1065 58.2773 34.1065 56.9819C34.1065 55.6865 35.1053 54.5926 36.3114 54.5926L36.3191 54.5914L36.3279 54.5926H58.36C58.621 54.5925 58.8734 54.4928 59.0725 54.3114C59.2715 54.13 59.4042 53.8785 59.447 53.6018L61.6519 39.3796C61.6787 39.2098 61.6707 39.0357 61.6284 38.8696C61.5861 38.7035 61.5105 38.5493 61.407 38.4179C61.3034 38.2865 61.1744 38.181 61.0289 38.1088C60.8835 38.0366 60.7251 37.9995 60.5649 38H35.0072L33.8607 30.6922C33.8168 30.4277 33.6896 30.1875 33.5005 30.0118C33.3115 29.8362 33.0719 29.7357 32.8222 29.7274C32.8045 29.7238 32.7924 29.7037 32.7748 29.7037H27.4919C27.1995 29.7037 26.9191 29.8286 26.7124 30.0508C26.5056 30.2731 26.3895 30.5746 26.3895 30.8889C26.3895 31.2032 26.5056 31.5047 26.7124 31.7269C26.9191 31.9492 27.1995 32.0741 27.4919 32.0741H31.8421L35.0425 52.4782C33.2323 53.0625 31.9016 54.8486 31.9016 56.9819C31.9031 58.2337 32.3663 59.4338 33.1897 60.319C34.013 61.2042 35.1293 61.7021 36.2937 61.7037H60.5472C60.8396 61.7037 61.12 61.5788 61.3268 61.3566C61.5335 61.1343 61.6497 60.8329 61.6497 60.5185C61.6497 60.2042 61.5335 59.9027 61.3268 59.6805C61.12 59.4582 60.8396 59.3333 60.5472 59.3333ZM58.1616 47.4815H54.5158L54.8168 45.1111H58.5276L58.1616 47.4815ZM52.29 47.4815H48.4381V45.1111H52.591L52.29 47.4815ZM46.2333 47.4815H42.3814L42.0804 45.1111H46.2333V47.4815ZM40.1567 47.4815H36.5109L36.1438 45.1111H39.8557L40.1567 47.4815ZM37.2451 52.2222L36.878 49.8519H40.4576L40.7586 52.2222H37.2451ZM42.9844 52.2222L42.6834 49.8519H46.2333V52.2222H42.9844ZM48.4381 52.2222V49.8519H51.988L51.687 52.2222H48.4381ZM53.9139 52.2222L54.2149 49.8519H57.7945L57.4274 52.2222H53.9139ZM59.2629 40.3704L58.8958 42.7407H55.1189L55.4198 40.3704H59.2629ZM53.194 40.3704L52.8931 42.7407H48.4381V40.3704H53.194ZM46.2333 40.3704V42.7407H41.7783L41.4774 40.3704H46.2333ZM39.2516 40.3704L39.5525 42.7407H35.7745L35.4074 40.3704H39.2516Z" fill="#66757F"/>
<path d="M39.6187 67.6296C41.4452 67.6296 42.926 66.0378 42.926 64.0741C42.926 62.1104 41.4452 60.5185 39.6187 60.5185C37.7921 60.5185 36.3114 62.1104 36.3114 64.0741C36.3114 66.0378 37.7921 67.6296 39.6187 67.6296Z" fill="#E1E8ED"/>
<path d="M39.6187 68.8148C37.1867 68.8148 35.2089 66.6886 35.2089 64.0741C35.2089 61.4596 37.1867 59.3333 39.6187 59.3333C42.0506 59.3333 44.0284 61.4596 44.0284 64.0741C44.0284 66.6886 42.0506 68.8148 39.6187 68.8148ZM39.6187 61.7037C38.4027 61.7037 37.4138 62.7668 37.4138 64.0741C37.4138 65.3813 38.4027 66.4444 39.6187 66.4444C40.8346 66.4444 41.8235 65.3813 41.8235 64.0741C41.8235 62.7668 40.8346 61.7037 39.6187 61.7037Z" fill="#292F33"/>
<path d="M55.0527 67.6296C56.8793 67.6296 58.36 66.0378 58.36 64.0741C58.36 62.1104 56.8793 60.5185 55.0527 60.5185C53.2261 60.5185 51.7454 62.1104 51.7454 64.0741C51.7454 66.0378 53.2261 67.6296 55.0527 67.6296Z" fill="#E1E8ED"/>
<path d="M55.0527 68.8148C52.6207 68.8148 50.643 66.6886 50.643 64.0741C50.643 61.4596 52.6207 59.3333 55.0527 59.3333C57.4847 59.3333 59.4624 61.4596 59.4624 64.0741C59.4624 66.6886 57.4847 68.8148 55.0527 68.8148ZM55.0527 61.7037C53.8367 61.7037 52.8478 62.7668 52.8478 64.0741C52.8478 65.3813 53.8367 66.4444 55.0527 66.4444C56.2687 66.4444 57.2576 65.3813 57.2576 64.0741C57.2576 62.7668 56.2687 61.7037 55.0527 61.7037Z" fill="#292F33"/>
</svg>
