<svg xmlns="http://www.w3.org/2000/svg" width="21.5" height="21.5" viewBox="0 0 21.5 21.5">
  <g id="view-grid" transform="translate(-2.25 -2.25)">
    <g id="Group_375" data-name="Group 375" transform="translate(3 3)">
      <path id="Path_1679" data-name="Path 1679" d="M14,21.111V14.667A.667.667,0,0,1,14.667,14h6.444a.667.667,0,0,1,.667.667v6.444a.667.667,0,0,1-.667.667H14.667A.667.667,0,0,1,14,21.111Z" transform="translate(-1.778 -1.778)" fill="none" stroke="rgba(0,0,10,0.4)" stroke-width="1.5"/>
      <path id="Path_1680" data-name="Path 1680" d="M3,21.111V14.667A.667.667,0,0,1,3.667,14h6.444a.667.667,0,0,1,.667.667v6.444a.667.667,0,0,1-.667.667H3.667A.667.667,0,0,1,3,21.111Z" transform="translate(-3 -1.778)" fill="none" stroke="rgba(0,0,10,0.4)" stroke-width="1.5"/>
      <path id="Path_1681" data-name="Path 1681" d="M14,10.111V3.667A.667.667,0,0,1,14.667,3h6.444a.667.667,0,0,1,.667.667v6.444a.667.667,0,0,1-.667.667H14.667A.667.667,0,0,1,14,10.111Z" transform="translate(-1.778 -3)" fill="none" stroke="rgba(0,0,10,0.4)" stroke-width="1.5"/>
      <path id="Path_1682" data-name="Path 1682" d="M3,10.111V3.667A.667.667,0,0,1,3.667,3h6.444a.667.667,0,0,1,.667.667v6.444a.667.667,0,0,1-.667.667H3.667A.667.667,0,0,1,3,10.111Z" transform="translate(-3 -3)" fill="none" stroke="rgba(0,0,10,0.4)" stroke-width="1.5"/>
    </g>
  </g>
</svg>
